# xmcd CD database file
#
# Track frame offsets:
#	150
#	21883
#	43933
#	62306
#	82274
#	100731
#	120331
#	141548
#
# Disc length: 2159 seconds
#
# Revision: 0
# Processed by: cddbd v1.5.1PL0 Copyright (c) Steve Scherf et al.
# Submitted via: CDex 1.51
#
DISCID=69086d08
DTITLE=Orquesta guarachando - OG Guarachando
DYEAR=1900
DGENRE=Salsa
TTITLE0=Abriendo Puertas
TTITLE1=Si se enamora de mi
TTITLE2=Una Historia de abajo
TTITLE3=Pensandote toda
TTITLE4=Cuando tu no estas
TTITLE5=Bendiciones de weekend
TTITLE6=Sombra de vago
TTITLE7=Mi pueblo
EXTD=
EXTT0=
EXTT1=
EXTT2=
EXTT3=
EXTT4=
EXTT5=
EXTT6=
EXTT7=
PLAYORDER=
